<svg width="42" height="42" viewBox="0 0 42 42" fill="none" xmlns="http://www.w3.org/2000/svg">
<path d="M1 3C1 1.89543 1.89543 1 3 1H39C40.1046 1 41 1.89543 41 3V39C41 40.1046 40.1046 41 39 41H3C1.89543 41 1 40.1046 1 39V3Z" fill="#CABAD6"/>
<path d="M11.0658 22.8248C9.8617 10.0511 25.5155 7.00973 30.3321 16.7421M30.3321 16.7421L30.9342 11.2676M30.3321 16.7421L25.5155 14.9173M30.9342 19.1752C32.1383 31.9489 16.4845 34.9903 11.6679 25.2579M11.6679 25.2579L11.0658 30.7324M11.6679 25.2579L16.4845 27.0827M3 41H39C40.1046 41 41 40.1046 41 39V3C41 1.89543 40.1046 1 39 1H3C1.89543 1 1 1.89543 1 3V39C1 40.1046 1.89543 41 3 41Z" stroke="#72518A"/>
</svg>
